<svg width="900" height="420" viewBox="0 0 900 420" fill="none" xmlns="http://www.w3.org/2000/svg">
  <defs>
    <linearGradient id="g1" x1="80" y1="40" x2="830" y2="370" gradientUnits="userSpaceOnUse">
      <stop stop-color="#5B3DF5" stop-opacity="0.16"/>
      <stop offset="1" stop-color="#D946EF" stop-opacity="0.2"/>
    </linearGradient>
    <linearGradient id="bubble" x1="0" y1="0" x2="1" y2="1">
      <stop stop-color="#FFFFFF"/>
      <stop offset="1" stop-color="#F3EEFF"/>
    </linearGradient>
  </defs>

  <rect x="52" y="30" width="796" height="360" rx="30" fill="url(#g1)"/>
  <rect x="84" y="70" width="732" height="280" rx="24" fill="rgba(255,255,255,0.75)"/>

  <g>
    <rect x="130" y="118" width="142" height="52" rx="24" fill="url(#bubble)"/>
    <text x="166" y="151" fill="#4223B6" font-family="Segoe UI, Arial" font-size="22" font-weight="700">heart</text>

    <rect x="292" y="118" width="160" height="52" rx="24" fill="url(#bubble)"/>
    <text x="332" y="151" fill="#4223B6" font-family="Segoe UI, Arial" font-size="22" font-weight="700">whisper</text>

    <rect x="474" y="118" width="160" height="52" rx="24" fill="url(#bubble)"/>
    <text x="518" y="151" fill="#4223B6" font-family="Segoe UI, Arial" font-size="22" font-weight="700">iflove</text>

    <rect x="654" y="118" width="118" height="52" rx="24" fill="url(#bubble)"/>
    <text x="682" y="151" fill="#4223B6" font-family="Segoe UI, Arial" font-size="22" font-weight="700">hug</text>

    <rect x="160" y="190" width="170" height="52" rx="24" fill="url(#bubble)"/>
    <text x="194" y="223" fill="#4223B6" font-family="Segoe UI, Arial" font-size="22" font-weight="700">promise</text>

    <rect x="354" y="190" width="180" height="52" rx="24" fill="url(#bubble)"/>
    <text x="392" y="223" fill="#4223B6" font-family="Segoe UI, Arial" font-size="22" font-weight="700">whilelove</text>

    <rect x="556" y="190" width="186" height="52" rx="24" fill="url(#bubble)"/>
    <text x="593" y="223" fill="#4223B6" font-family="Segoe UI, Arial" font-size="22" font-weight="700">goodbye</text>

    <rect x="224" y="262" width="200" height="52" rx="24" fill="url(#bubble)"/>
    <text x="258" y="295" fill="#4223B6" font-family="Segoe UI, Arial" font-size="22" font-weight="700">forever</text>

    <rect x="448" y="262" width="190" height="52" rx="24" fill="url(#bubble)"/>
    <text x="488" y="295" fill="#4223B6" font-family="Segoe UI, Arial" font-size="22" font-weight="700">breakup</text>
  </g>

  <circle cx="120" cy="328" r="11" fill="#D946EF" fill-opacity="0.6"/>
  <circle cx="770" cy="95" r="9" fill="#06B6D4" fill-opacity="0.55"/>
  <circle cx="744" cy="338" r="13" fill="#5B3DF5" fill-opacity="0.5"/>
</svg>
